{"title":"QI XL S11E03 K-Folk [WEB Rip]","uid":8953063,"size":291687325,"categoryP":"video","categoryS":"tv_shows","magnet":"?xt=urn:btih:03417bb0860d98b47c968ace17eb8533ced263ef&amp;dn=QI+XL+S11E03+K-Folk+%5BWEB+Rip%5D&amp;tr=udp%3A%2F%2Ftracker.openbittorrent.com%3A80&amp;tr=udp%3A%2F%2Fopen.demonii.com%3A1337&amp;tr=udp%3A%2F%2Ftracker.coppersurfer.tk%3A6969&amp;tr=udp%3A%2F%2Fexodus.desync.com%3A6969","seeders":0,"leechers":1,"uploader":"infidelwarez","files":1,"time":1379934003,"description":"QI XL - Series K -\n3. K-Folk\n\n\nQuiz show. Stephen Fry looks into the quite interesting world of K-Folk with Katherine Ryan, Josh Widdicombe, Phill Jupitus and Alan Davies.\n\nBroadcast on\nBBC Two, 11:25PM Sun, 22 Sep 2013\n\n\nFormat                                   : MPEG-4\nFormat profile                           : Base Media\nCodec ID                                 : isom\nFile size                                : 278 MiB\nDuration                                 : 44mn 21s\nOverall bit rate mode                    : Variable\nOverall bit rate                         : 877 Kbps\nWriting application                      : Lavf54.6.101\n\nVideo\nID                                       : 1\nFormat                                   : AVC\nFormat/Info                              : Advanced Video Codec\nFormat profile                           : &lt;a class=&quot;__cf_email__&quot; href=&quot;/cdn-cgi/l/email-protection&quot; data-cfemail=&quot;7538141c1b3539465b45&quot;&gt;[email&amp;#160;protected]&lt;/a&gt;&lt;script cf-hash='f9e31' type=&quot;text/javascript&quot;&gt;\n/* &lt;![CDATA[ */!function(){try{var t=&quot;currentScript&quot;in document?document.currentScript:function(){for(var t=document.getElementsByTagName(&quot;script&quot;),e=t.length;e--;)if(t[e].getAttribute(&quot;cf-hash&quot;))return t[e]}();if(t&amp;&amp;t.previousSibling){var e,r,n,i,c=t.previousSibling,a=c.getAttribute(&quot;data-cfemail&quot;);if(a){for(e=&quot;&quot;,r=parseInt(a.substr(0,2),16),n=2;a.length-n;n+=2)i=parseInt(a.substr(n,2),16)^r,e+=String.fromCharCode(i);e=document.createTextNode(e),c.parentNode.replaceChild(e,c)}}}catch(u){}}();/* ]]&gt; */&lt;/script&gt;\nFormat settings, CABAC                   : Yes\nFormat settings, ReFrames                : 2 frames\nCodec ID                                 : avc1\nCodec ID/Info                            : Advanced Video Coding\nDuration                                 : 44mn 21s\nBit rate mode                            : Constant\nBit rate                                 : 704 Kbps\nWidth                                    : 640 pixels\nHeight                                   : 360 pixels\nDisplay aspect ratio                     : 16:9\nFrame rate mode                          : Constant\nFrame rate                               : 25.000 fps\nColor space                              : YUV\nChroma subsampling                       : 4:2:0\nBit depth                                : 8 bits\nScan type                                : Progressive\nBits/(Pixel*Frame)                       : 0.122\nStream size                              : 223 MiB (80%)\n\nAudio\nID                                       : 2\nFormat                                   : AAC\nFormat/Info                              : Advanced Audio Codec\nFormat profile                           : LC\nCodec ID                                 : 40\nDuration                                 : 44mn 21s\nBit rate mode                            : Variable\nBit rate                                 : 165 Kbps\nMaximum bit rate                         : 192 Kbps\nChannel(s)                               : 2 channels\nChannel positions                        : Front: L R\nSampling rate                            : 48.0 KHz\nCompression mode                         : Lossy\nStream size                              : 52.5 MiB (19%)","torrent":{"xt":"urn:btih:03417bb0860d98b47c968ace17eb8533ced263ef","amp;dn":"QI+XL+S11E03+K-Folk+%5BWEB+Rip%5D","amp;tr":["udp%3A%2F%2Ftracker.openbittorrent.com%3A80","udp%3A%2F%2Fopen.demonii.com%3A1337","udp%3A%2F%2Ftracker.coppersurfer.tk%3A6969","udp%3A%2F%2Fexodus.desync.com%3A6969"],"infoHash":"03417bb0860d98b47c968ace17eb8533ced263ef","infoHashBuffer":{"type":"Buffer","data":[3,65,123,176,134,13,152,180,124,150,138,206,23,235,133,51,206,210,99,239]},"announce":[],"urlList":[]}}